<?xml version="1.0" encoding="UTF-8" standalone="no"?>
<!DOCTYPE svg PUBLIC "-//W3C//DTD SVG 1.1//EN"
 "http://www.w3.org/Graphics/SVG/1.1/DTD/svg11.dtd">
<!-- Generated by graphviz version 2.38.0 (20140413.2041)
 -->
<!-- Title: %3 Pages: 1 -->
<svg width="1446pt" height="476pt"
 viewBox="0.00 0.00 1446.00 476.00" xmlns="http://www.w3.org/2000/svg" xmlns:xlink="http://www.w3.org/1999/xlink">
<g id="graph0" class="graph" transform="scale(1 1) rotate(0) translate(4 472)">
<title>%3</title>
<polygon fill="white" stroke="none" points="-4,4 -4,-472 1442,-472 1442,4 -4,4"/>
<!-- [root] aws_instance.tf_aws_vm_01 -->
<g id="node1" class="node"><title>[root] aws_instance.tf_aws_vm_01</title>
<polygon fill="none" stroke="black" points="558,-324 380,-324 380,-288 558,-288 558,-324"/>
<text text-anchor="middle" x="469" y="-302.3" font-family="Times New Roman,serif" font-size="14.00">aws_instance.tf_aws_vm_01</text>
</g>
<!-- [root] aws_subnet.subnet2 -->
<g id="node4" class="node"><title>[root] aws_subnet.subnet2</title>
<polygon fill="none" stroke="black" points="449,-252 319,-252 319,-216 449,-216 449,-252"/>
<text text-anchor="middle" x="384" y="-230.3" font-family="Times New Roman,serif" font-size="14.00">aws_subnet.subnet2</text>
</g>
<!-- [root] aws_instance.tf_aws_vm_01&#45;&gt;[root] aws_subnet.subnet2 -->
<g id="edge1" class="edge"><title>[root] aws_instance.tf_aws_vm_01&#45;&gt;[root] aws_subnet.subnet2</title>
<path fill="none" stroke="black" d="M447.989,-287.697C437.284,-278.881 424.11,-268.032 412.504,-258.474"/>
<polygon fill="black" stroke="black" points="414.714,-255.76 404.77,-252.104 410.264,-261.163 414.714,-255.76"/>
</g>
<!-- [root] data.aws_ami.ubuntu -->
<g id="node10" class="node"><title>[root] data.aws_ami.ubuntu</title>
<polygon fill="none" stroke="black" points="546,-180 412,-180 412,-144 546,-144 546,-180"/>
<text text-anchor="middle" x="479" y="-158.3" font-family="Times New Roman,serif" font-size="14.00">data.aws_ami.ubuntu</text>
</g>
<!-- [root] aws_instance.tf_aws_vm_01&#45;&gt;[root] data.aws_ami.ubuntu -->
<g id="edge2" class="edge"><title>[root] aws_instance.tf_aws_vm_01&#45;&gt;[root] data.aws_ami.ubuntu</title>
<path fill="none" stroke="black" d="M470.206,-287.871C471.911,-263.67 475.041,-219.211 477.071,-190.393"/>
<polygon fill="black" stroke="black" points="480.578,-190.41 477.789,-180.189 473.596,-189.919 480.578,-190.41"/>
</g>
<!-- [root] aws_security_group.subnetsecurity -->
<g id="node2" class="node"><title>[root] aws_security_group.subnetsecurity</title>
<polygon fill="none" stroke="black" points="214,-324 0,-324 0,-288 214,-288 214,-324"/>
<text text-anchor="middle" x="107" y="-302.3" font-family="Times New Roman,serif" font-size="14.00">aws_security_group.subnetsecurity</text>
</g>
<!-- [root] aws_vpc.environment&#45;example&#45;two -->
<g id="node5" class="node"><title>[root] aws_vpc.environment&#45;example&#45;two</title>
<polygon fill="none" stroke="black" points="393.5,-180 178.5,-180 178.5,-144 393.5,-144 393.5,-180"/>
<text text-anchor="middle" x="286" y="-158.3" font-family="Times New Roman,serif" font-size="14.00">aws_vpc.environment&#45;example&#45;two</text>
</g>
<!-- [root] aws_security_group.subnetsecurity&#45;&gt;[root] aws_vpc.environment&#45;example&#45;two -->
<g id="edge3" class="edge"><title>[root] aws_security_group.subnetsecurity&#45;&gt;[root] aws_vpc.environment&#45;example&#45;two</title>
<path fill="none" stroke="black" d="M128.592,-287.871C160.443,-262.604 220.13,-215.254 256.151,-186.679"/>
<polygon fill="black" stroke="black" points="258.673,-189.146 264.332,-180.189 254.322,-183.662 258.673,-189.146"/>
</g>
<!-- [root] aws_subnet.subnet1 -->
<g id="node3" class="node"><title>[root] aws_subnet.subnet1</title>
<polygon fill="none" stroke="black" points="362,-324 232,-324 232,-288 362,-288 362,-324"/>
<text text-anchor="middle" x="297" y="-302.3" font-family="Times New Roman,serif" font-size="14.00">aws_subnet.subnet1</text>
</g>
<!-- [root] aws_subnet.subnet1&#45;&gt;[root] aws_vpc.environment&#45;example&#45;two -->
<g id="edge4" class="edge"><title>[root] aws_subnet.subnet1&#45;&gt;[root] aws_vpc.environment&#45;example&#45;two</title>
<path fill="none" stroke="black" d="M295.673,-287.871C293.798,-263.67 290.354,-219.211 288.122,-190.393"/>
<polygon fill="black" stroke="black" points="291.594,-189.889 287.332,-180.189 284.614,-190.43 291.594,-189.889"/>
</g>
<!-- [root] aws_subnet.subnet2&#45;&gt;[root] aws_vpc.environment&#45;example&#45;two -->
<g id="edge5" class="edge"><title>[root] aws_subnet.subnet2&#45;&gt;[root] aws_vpc.environment&#45;example&#45;two</title>
<path fill="none" stroke="black" d="M360.027,-215.876C347.45,-206.893 331.868,-195.763 318.248,-186.034"/>
<polygon fill="black" stroke="black" points="320.237,-183.154 310.066,-180.19 316.169,-188.85 320.237,-183.154"/>
</g>
<!-- [root] provider.aws -->
<g id="node11" class="node"><title>[root] provider.aws</title>
<polygon fill="none" stroke="black" points="472,-108 390.39,-90 472,-72 553.61,-90 472,-108"/>
<text text-anchor="middle" x="472" y="-86.3" font-family="Times New Roman,serif" font-size="14.00">provider.aws</text>
</g>
<!-- [root] aws_vpc.environment&#45;example&#45;two&#45;&gt;[root] provider.aws -->
<g id="edge6" class="edge"><title>[root] aws_vpc.environment&#45;example&#45;two&#45;&gt;[root] provider.aws</title>
<path fill="none" stroke="black" d="M331.501,-143.876C362.904,-132.058 404.185,-116.522 433.863,-105.353"/>
<polygon fill="black" stroke="black" points="435.326,-108.542 443.452,-101.744 432.86,-101.99 435.326,-108.542"/>
</g>
<!-- [root] azurerm_resource_group.tf&#45;test&#45;rg1 -->
<g id="node6" class="node"><title>[root] azurerm_resource_group.tf&#45;test&#45;rg1</title>
<polygon fill="none" stroke="black" points="1268.5,-180 1053.5,-180 1053.5,-144 1268.5,-144 1268.5,-180"/>
<text text-anchor="middle" x="1161" y="-158.3" font-family="Times New Roman,serif" font-size="14.00">azurerm_resource_group.tf&#45;test&#45;rg1</text>
</g>
<!-- [root] provider.azurerm -->
<g id="node12" class="node"><title>[root] provider.azurerm</title>
<polygon fill="none" stroke="black" points="1161,-108 1058.11,-90 1161,-72 1263.89,-90 1161,-108"/>
<text text-anchor="middle" x="1161" y="-86.3" font-family="Times New Roman,serif" font-size="14.00">provider.azurerm</text>
</g>
<!-- [root] azurerm_resource_group.tf&#45;test&#45;rg1&#45;&gt;[root] provider.azurerm -->
<g id="edge7" class="edge"><title>[root] azurerm_resource_group.tf&#45;test&#45;rg1&#45;&gt;[root] provider.azurerm</title>
<path fill="none" stroke="black" d="M1161,-143.697C1161,-135.983 1161,-126.712 1161,-118.112"/>
<polygon fill="black" stroke="black" points="1164.5,-118.104 1161,-108.104 1157.5,-118.104 1164.5,-118.104"/>
</g>
<!-- [root] azurerm_subnet.TFVirtualsubnet1 -->
<g id="node7" class="node"><title>[root] azurerm_subnet.TFVirtualsubnet1</title>
<polygon fill="none" stroke="black" points="1214,-324 1008,-324 1008,-288 1214,-288 1214,-324"/>
<text text-anchor="middle" x="1111" y="-302.3" font-family="Times New Roman,serif" font-size="14.00">azurerm_subnet.TFVirtualsubnet1</text>
</g>
<!-- [root] azurerm_virtual_network.TF_Virtual_Network -->
<g id="node9" class="node"><title>[root] azurerm_virtual_network.TF_Virtual_Network</title>
<polygon fill="none" stroke="black" points="1298.5,-252 1023.5,-252 1023.5,-216 1298.5,-216 1298.5,-252"/>
<text text-anchor="middle" x="1161" y="-230.3" font-family="Times New Roman,serif" font-size="14.00">azurerm_virtual_network.TF_Virtual_Network</text>
</g>
<!-- [root] azurerm_subnet.TFVirtualsubnet1&#45;&gt;[root] azurerm_virtual_network.TF_Virtual_Network -->
<g id="edge8" class="edge"><title>[root] azurerm_subnet.TFVirtualsubnet1&#45;&gt;[root] azurerm_virtual_network.TF_Virtual_Network</title>
<path fill="none" stroke="black" d="M1123.36,-287.697C1129.23,-279.474 1136.37,-269.483 1142.84,-260.421"/>
<polygon fill="black" stroke="black" points="1145.82,-262.276 1148.78,-252.104 1140.12,-258.207 1145.82,-262.276"/>
</g>
<!-- [root] azurerm_subnet.TFVirtualsubnet2 -->
<g id="node8" class="node"><title>[root] azurerm_subnet.TFVirtualsubnet2</title>
<polygon fill="none" stroke="black" points="1438,-324 1232,-324 1232,-288 1438,-288 1438,-324"/>
<text text-anchor="middle" x="1335" y="-302.3" font-family="Times New Roman,serif" font-size="14.00">azurerm_subnet.TFVirtualsubnet2</text>
</g>
<!-- [root] azurerm_subnet.TFVirtualsubnet2&#45;&gt;[root] azurerm_virtual_network.TF_Virtual_Network -->
<g id="edge9" class="edge"><title>[root] azurerm_subnet.TFVirtualsubnet2&#45;&gt;[root] azurerm_virtual_network.TF_Virtual_Network</title>
<path fill="none" stroke="black" d="M1292.43,-287.876C1268.44,-278.222 1238.27,-266.087 1212.9,-255.878"/>
<polygon fill="black" stroke="black" points="1214.01,-252.554 1203.43,-252.068 1211.4,-259.048 1214.01,-252.554"/>
</g>
<!-- [root] azurerm_virtual_network.TF_Virtual_Network&#45;&gt;[root] azurerm_resource_group.tf&#45;test&#45;rg1 -->
<g id="edge10" class="edge"><title>[root] azurerm_virtual_network.TF_Virtual_Network&#45;&gt;[root] azurerm_resource_group.tf&#45;test&#45;rg1</title>
<path fill="none" stroke="black" d="M1161,-215.697C1161,-207.983 1161,-198.712 1161,-190.112"/>
<polygon fill="black" stroke="black" points="1164.5,-190.104 1161,-180.104 1157.5,-190.104 1164.5,-190.104"/>
</g>
<!-- [root] data.aws_ami.ubuntu&#45;&gt;[root] provider.aws -->
<g id="edge11" class="edge"><title>[root] data.aws_ami.ubuntu&#45;&gt;[root] provider.aws</title>
<path fill="none" stroke="black" d="M477.27,-143.697C476.498,-135.983 475.571,-126.712 474.711,-118.112"/>
<polygon fill="black" stroke="black" points="478.188,-117.706 473.71,-108.104 471.223,-118.403 478.188,-117.706"/>
</g>
<!-- [root] var.aws_access_key -->
<g id="node13" class="node"><title>[root] var.aws_access_key</title>
<polygon fill="none" stroke="black" points="397.5,-36 272.5,-36 272.5,-0 403.5,-0 403.5,-30 397.5,-36"/>
<polyline fill="none" stroke="black" points="397.5,-36 397.5,-30 "/>
<polyline fill="none" stroke="black" points="403.5,-30 397.5,-30 "/>
<text text-anchor="middle" x="338" y="-14.3" font-family="Times New Roman,serif" font-size="14.00">var.aws_access_key</text>
</g>
<!-- [root] provider.aws&#45;&gt;[root] var.aws_access_key -->
<g id="edge23" class="edge"><title>[root] provider.aws&#45;&gt;[root] var.aws_access_key</title>
<path fill="none" stroke="black" d="M448.965,-76.9666C430.023,-67.0719 402.689,-52.7928 379.89,-40.8829"/>
<polygon fill="black" stroke="black" points="381.243,-37.6407 370.759,-36.1127 378.002,-43.8452 381.243,-37.6407"/>
</g>
<!-- [root] var.aws_region -->
<g id="node14" class="node"><title>[root] var.aws_region</title>
<polygon fill="none" stroke="black" points="516.5,-36 421.5,-36 421.5,-0 522.5,-0 522.5,-30 516.5,-36"/>
<polyline fill="none" stroke="black" points="516.5,-36 516.5,-30 "/>
<polyline fill="none" stroke="black" points="522.5,-30 516.5,-30 "/>
<text text-anchor="middle" x="472" y="-14.3" font-family="Times New Roman,serif" font-size="14.00">var.aws_region</text>
</g>
<!-- [root] provider.aws&#45;&gt;[root] var.aws_region -->
<g id="edge24" class="edge"><title>[root] provider.aws&#45;&gt;[root] var.aws_region</title>
<path fill="none" stroke="black" d="M472,-71.6966C472,-63.9827 472,-54.7125 472,-46.1124"/>
<polygon fill="black" stroke="black" points="475.5,-46.1043 472,-36.1043 468.5,-46.1044 475.5,-46.1043"/>
</g>
<!-- [root] var.aws_secret_key -->
<g id="node15" class="node"><title>[root] var.aws_secret_key</title>
<polygon fill="none" stroke="black" points="661.5,-36 540.5,-36 540.5,-0 667.5,-0 667.5,-30 661.5,-36"/>
<polyline fill="none" stroke="black" points="661.5,-36 661.5,-30 "/>
<polyline fill="none" stroke="black" points="667.5,-30 661.5,-30 "/>
<text text-anchor="middle" x="604" y="-14.3" font-family="Times New Roman,serif" font-size="14.00">var.aws_secret_key</text>
</g>
<!-- [root] provider.aws&#45;&gt;[root] var.aws_secret_key -->
<g id="edge25" class="edge"><title>[root] provider.aws&#45;&gt;[root] var.aws_secret_key</title>
<path fill="none" stroke="black" d="M494.692,-76.9666C513.35,-67.0719 540.276,-52.7928 562.735,-40.8829"/>
<polygon fill="black" stroke="black" points="564.535,-43.8899 571.73,-36.1127 561.256,-37.7057 564.535,-43.8899"/>
</g>
<!-- [root] var.azurerm_client_id -->
<g id="node16" class="node"><title>[root] var.azurerm_client_id</title>
<polygon fill="none" stroke="black" points="1430.5,-36 1299.5,-36 1299.5,-0 1436.5,-0 1436.5,-30 1430.5,-36"/>
<polyline fill="none" stroke="black" points="1430.5,-36 1430.5,-30 "/>
<polyline fill="none" stroke="black" points="1436.5,-30 1430.5,-30 "/>
<text text-anchor="middle" x="1368" y="-14.3" font-family="Times New Roman,serif" font-size="14.00">var.azurerm_client_id</text>
</g>
<!-- [root] provider.azurerm&#45;&gt;[root] var.azurerm_client_id -->
<g id="edge28" class="edge"><title>[root] provider.azurerm&#45;&gt;[root] var.azurerm_client_id</title>
<path fill="none" stroke="black" d="M1194.26,-77.7533C1224.79,-67.4295 1270.75,-51.8851 1307.74,-39.378"/>
<polygon fill="black" stroke="black" points="1309.07,-42.6227 1317.42,-36.1036 1306.83,-35.9916 1309.07,-42.6227"/>
</g>
<!-- [root] var.azurerm_client_secret -->
<g id="node17" class="node"><title>[root] var.azurerm_client_secret</title>
<polygon fill="none" stroke="black" points="922.5,-36 769.5,-36 769.5,-0 928.5,-0 928.5,-30 922.5,-36"/>
<polyline fill="none" stroke="black" points="922.5,-36 922.5,-30 "/>
<polyline fill="none" stroke="black" points="928.5,-30 922.5,-30 "/>
<text text-anchor="middle" x="849" y="-14.3" font-family="Times New Roman,serif" font-size="14.00">var.azurerm_client_secret</text>
</g>
<!-- [root] provider.azurerm&#45;&gt;[root] var.azurerm_client_secret -->
<g id="edge29" class="edge"><title>[root] provider.azurerm&#45;&gt;[root] var.azurerm_client_secret</title>
<path fill="none" stroke="black" d="M1118.27,-79.4136C1071.24,-68.8615 994.405,-51.6228 934.823,-38.2552"/>
<polygon fill="black" stroke="black" points="935.565,-34.8346 925.041,-36.0604 934.032,-41.6648 935.565,-34.8346"/>
</g>
<!-- [root] var.azurerm_subscription_id -->
<g id="node18" class="node"><title>[root] var.azurerm_subscription_id</title>
<polygon fill="none" stroke="black" points="1117,-36 947,-36 947,-0 1123,-0 1123,-30 1117,-36"/>
<polyline fill="none" stroke="black" points="1117,-36 1117,-30 "/>
<polyline fill="none" stroke="black" points="1123,-30 1117,-30 "/>
<text text-anchor="middle" x="1035" y="-14.3" font-family="Times New Roman,serif" font-size="14.00">var.azurerm_subscription_id</text>
</g>
<!-- [root] provider.azurerm&#45;&gt;[root] var.azurerm_subscription_id -->
<g id="edge30" class="edge"><title>[root] provider.azurerm&#45;&gt;[root] var.azurerm_subscription_id</title>
<path fill="none" stroke="black" d="M1137.6,-75.9976C1119.99,-66.2162 1095.44,-52.5802 1074.78,-41.0982"/>
<polygon fill="black" stroke="black" points="1076.33,-37.9587 1065.89,-36.1617 1072.93,-44.0778 1076.33,-37.9587"/>
</g>
<!-- [root] var.azurerm_tenant_id -->
<g id="node19" class="node"><title>[root] var.azurerm_tenant_id</title>
<polygon fill="none" stroke="black" points="1275,-36 1141,-36 1141,-0 1281,-0 1281,-30 1275,-36"/>
<polyline fill="none" stroke="black" points="1275,-36 1275,-30 "/>
<polyline fill="none" stroke="black" points="1281,-30 1275,-30 "/>
<text text-anchor="middle" x="1211" y="-14.3" font-family="Times New Roman,serif" font-size="14.00">var.azurerm_tenant_id</text>
</g>
<!-- [root] provider.azurerm&#45;&gt;[root] var.azurerm_tenant_id -->
<g id="edge31" class="edge"><title>[root] provider.azurerm&#45;&gt;[root] var.azurerm_tenant_id</title>
<path fill="none" stroke="black" d="M1171.85,-73.811C1177.98,-65.2274 1185.8,-54.2735 1192.84,-44.4178"/>
<polygon fill="black" stroke="black" points="1195.8,-46.2984 1198.77,-36.1267 1190.11,-42.2297 1195.8,-46.2984"/>
</g>
<!-- [root] var.vsphere_password -->
<g id="node20" class="node"><title>[root] var.vsphere_password</title>
<polygon fill="none" stroke="black" points="713.5,-324 576.5,-324 576.5,-288 719.5,-288 719.5,-318 713.5,-324"/>
<polyline fill="none" stroke="black" points="713.5,-324 713.5,-318 "/>
<polyline fill="none" stroke="black" points="719.5,-318 713.5,-318 "/>
<text text-anchor="middle" x="648" y="-302.3" font-family="Times New Roman,serif" font-size="14.00">var.vsphere_password</text>
</g>
<!-- [root] var.vsphere_server -->
<g id="node21" class="node"><title>[root] var.vsphere_server</title>
<polygon fill="none" stroke="black" points="854,-324 738,-324 738,-288 860,-288 860,-318 854,-324"/>
<polyline fill="none" stroke="black" points="854,-324 854,-318 "/>
<polyline fill="none" stroke="black" points="860,-318 854,-318 "/>
<text text-anchor="middle" x="799" y="-302.3" font-family="Times New Roman,serif" font-size="14.00">var.vsphere_server</text>
</g>
<!-- [root] var.vsphere_user -->
<g id="node22" class="node"><title>[root] var.vsphere_user</title>
<polygon fill="none" stroke="black" points="984,-324 878,-324 878,-288 990,-288 990,-318 984,-324"/>
<polyline fill="none" stroke="black" points="984,-324 984,-318 "/>
<polyline fill="none" stroke="black" points="990,-318 984,-318 "/>
<text text-anchor="middle" x="934" y="-302.3" font-family="Times New Roman,serif" font-size="14.00">var.vsphere_user</text>
</g>
<!-- [root] meta.count&#45;boundary (EachMode fixup) -->
<g id="node23" class="node"><title>[root] meta.count&#45;boundary (EachMode fixup)</title>
<ellipse fill="none" stroke="black" cx="718" cy="-378" rx="180.868" ry="18"/>
<text text-anchor="middle" x="718" y="-374.3" font-family="Times New Roman,serif" font-size="14.00">[root] meta.count&#45;boundary (EachMode fixup)</text>
</g>
<!-- [root] meta.count&#45;boundary (EachMode fixup)&#45;&gt;[root] aws_instance.tf_aws_vm_01 -->
<g id="edge12" class="edge"><title>[root] meta.count&#45;boundary (EachMode fixup)&#45;&gt;[root] aws_instance.tf_aws_vm_01</title>
<path fill="none" stroke="black" d="M660.562,-360.853C624.569,-350.734 577.917,-337.619 539.663,-326.865"/>
<polygon fill="black" stroke="black" points="540.197,-323.38 529.623,-324.043 538.303,-330.118 540.197,-323.38"/>
</g>
<!-- [root] meta.count&#45;boundary (EachMode fixup)&#45;&gt;[root] aws_security_group.subnetsecurity -->
<g id="edge13" class="edge"><title>[root] meta.count&#45;boundary (EachMode fixup)&#45;&gt;[root] aws_security_group.subnetsecurity</title>
<path fill="none" stroke="black" d="M592.985,-364.97C495.354,-355.257 356.009,-340.698 224.38,-324.149"/>
<polygon fill="black" stroke="black" points="224.469,-320.633 214.109,-322.852 223.591,-327.577 224.469,-320.633"/>
</g>
<!-- [root] meta.count&#45;boundary (EachMode fixup)&#45;&gt;[root] aws_subnet.subnet1 -->
<g id="edge14" class="edge"><title>[root] meta.count&#45;boundary (EachMode fixup)&#45;&gt;[root] aws_subnet.subnet1</title>
<path fill="none" stroke="black" d="M614.408,-363.229C547.82,-353.892 459.268,-340.578 372.355,-324.19"/>
<polygon fill="black" stroke="black" points="372.792,-320.71 362.314,-322.281 371.485,-327.587 372.792,-320.71"/>
</g>
<!-- [root] meta.count&#45;boundary (EachMode fixup)&#45;&gt;[root] azurerm_subnet.TFVirtualsubnet1 -->
<g id="edge15" class="edge"><title>[root] meta.count&#45;boundary (EachMode fixup)&#45;&gt;[root] azurerm_subnet.TFVirtualsubnet1</title>
<path fill="none" stroke="black" d="M802.308,-361.983C861.717,-351.401 941.702,-337.155 1005.37,-325.815"/>
<polygon fill="black" stroke="black" points="1006.21,-329.22 1015.44,-324.021 1004.98,-322.329 1006.21,-329.22"/>
</g>
<!-- [root] meta.count&#45;boundary (EachMode fixup)&#45;&gt;[root] azurerm_subnet.TFVirtualsubnet2 -->
<g id="edge16" class="edge"><title>[root] meta.count&#45;boundary (EachMode fixup)&#45;&gt;[root] azurerm_subnet.TFVirtualsubnet2</title>
<path fill="none" stroke="black" d="M845.57,-365.251C945.289,-355.681 1087.64,-341.178 1221.83,-324.119"/>
<polygon fill="black" stroke="black" points="1222.41,-327.573 1231.89,-322.834 1221.53,-320.63 1222.41,-327.573"/>
</g>
<!-- [root] meta.count&#45;boundary (EachMode fixup)&#45;&gt;[root] var.vsphere_password -->
<g id="edge17" class="edge"><title>[root] meta.count&#45;boundary (EachMode fixup)&#45;&gt;[root] var.vsphere_password</title>
<path fill="none" stroke="black" d="M701.055,-360.055C692.498,-351.498 681.959,-340.959 672.535,-331.535"/>
<polygon fill="black" stroke="black" points="674.821,-328.872 665.275,-324.275 669.872,-333.821 674.821,-328.872"/>
</g>
<!-- [root] meta.count&#45;boundary (EachMode fixup)&#45;&gt;[root] var.vsphere_server -->
<g id="edge18" class="edge"><title>[root] meta.count&#45;boundary (EachMode fixup)&#45;&gt;[root] var.vsphere_server</title>
<path fill="none" stroke="black" d="M737.608,-360.055C747.78,-351.264 760.374,-340.38 771.503,-330.763"/>
<polygon fill="black" stroke="black" points="774.014,-333.218 779.292,-324.032 769.437,-327.922 774.014,-333.218"/>
</g>
<!-- [root] meta.count&#45;boundary (EachMode fixup)&#45;&gt;[root] var.vsphere_user -->
<g id="edge19" class="edge"><title>[root] meta.count&#45;boundary (EachMode fixup)&#45;&gt;[root] var.vsphere_user</title>
<path fill="none" stroke="black" d="M768.37,-360.676C799.099,-350.718 838.63,-337.907 871.366,-327.298"/>
<polygon fill="black" stroke="black" points="872.856,-330.494 881.29,-324.082 870.698,-323.835 872.856,-330.494"/>
</g>
<!-- [root] provider.aws (close) -->
<g id="node24" class="node"><title>[root] provider.aws (close)</title>
<ellipse fill="none" stroke="black" cx="389" cy="-378" rx="108.581" ry="18"/>
<text text-anchor="middle" x="389" y="-374.3" font-family="Times New Roman,serif" font-size="14.00">[root] provider.aws (close)</text>
</g>
<!-- [root] provider.aws (close)&#45;&gt;[root] aws_instance.tf_aws_vm_01 -->
<g id="edge20" class="edge"><title>[root] provider.aws (close)&#45;&gt;[root] aws_instance.tf_aws_vm_01</title>
<path fill="none" stroke="black" d="M408.366,-360.055C418.413,-351.264 430.851,-340.38 441.843,-330.763"/>
<polygon fill="black" stroke="black" points="444.314,-333.251 449.535,-324.032 439.705,-327.983 444.314,-333.251"/>
</g>
<!-- [root] provider.aws (close)&#45;&gt;[root] aws_security_group.subnetsecurity -->
<g id="edge21" class="edge"><title>[root] provider.aws (close)&#45;&gt;[root] aws_security_group.subnetsecurity</title>
<path fill="none" stroke="black" d="M331.253,-362.666C289.218,-352.231 231.804,-337.98 185.594,-326.509"/>
<polygon fill="black" stroke="black" points="186.162,-323.044 175.613,-324.032 184.475,-329.838 186.162,-323.044"/>
</g>
<!-- [root] provider.aws (close)&#45;&gt;[root] aws_subnet.subnet1 -->
<g id="edge22" class="edge"><title>[root] provider.aws (close)&#45;&gt;[root] aws_subnet.subnet1</title>
<path fill="none" stroke="black" d="M366.729,-360.055C354.951,-351.093 340.314,-339.957 327.497,-330.204"/>
<polygon fill="black" stroke="black" points="329.462,-327.301 319.384,-324.032 325.223,-332.872 329.462,-327.301"/>
</g>
<!-- [root] provider.azurerm (close) -->
<g id="node25" class="node"><title>[root] provider.azurerm (close)</title>
<ellipse fill="none" stroke="black" cx="1111" cy="-378" rx="123.478" ry="18"/>
<text text-anchor="middle" x="1111" y="-374.3" font-family="Times New Roman,serif" font-size="14.00">[root] provider.azurerm (close)</text>
</g>
<!-- [root] provider.azurerm (close)&#45;&gt;[root] azurerm_subnet.TFVirtualsubnet1 -->
<g id="edge26" class="edge"><title>[root] provider.azurerm (close)&#45;&gt;[root] azurerm_subnet.TFVirtualsubnet1</title>
<path fill="none" stroke="black" d="M1111,-359.697C1111,-351.983 1111,-342.712 1111,-334.112"/>
<polygon fill="black" stroke="black" points="1114.5,-334.104 1111,-324.104 1107.5,-334.104 1114.5,-334.104"/>
</g>
<!-- [root] provider.azurerm (close)&#45;&gt;[root] azurerm_subnet.TFVirtualsubnet2 -->
<g id="edge27" class="edge"><title>[root] provider.azurerm (close)&#45;&gt;[root] azurerm_subnet.TFVirtualsubnet2</title>
<path fill="none" stroke="black" d="M1160.71,-361.465C1193.11,-351.34 1235.71,-338.029 1270.68,-327.101"/>
<polygon fill="black" stroke="black" points="1271.82,-330.41 1280.32,-324.086 1269.74,-323.728 1271.82,-330.41"/>
</g>
<!-- [root] root -->
<g id="node26" class="node"><title>[root] root</title>
<ellipse fill="none" stroke="black" cx="718" cy="-450" rx="49.2915" ry="18"/>
<text text-anchor="middle" x="718" y="-446.3" font-family="Times New Roman,serif" font-size="14.00">[root] root</text>
</g>
<!-- [root] root&#45;&gt;[root] meta.count&#45;boundary (EachMode fixup) -->
<g id="edge32" class="edge"><title>[root] root&#45;&gt;[root] meta.count&#45;boundary (EachMode fixup)</title>
<path fill="none" stroke="black" d="M718,-431.697C718,-423.983 718,-414.712 718,-406.112"/>
<polygon fill="black" stroke="black" points="721.5,-406.104 718,-396.104 714.5,-406.104 721.5,-406.104"/>
</g>
<!-- [root] root&#45;&gt;[root] provider.aws (close) -->
<g id="edge33" class="edge"><title>[root] root&#45;&gt;[root] provider.aws (close)</title>
<path fill="none" stroke="black" d="M676.332,-440.134C622.716,-428.727 528.653,-408.713 462.801,-394.702"/>
<polygon fill="black" stroke="black" points="463.401,-391.252 452.892,-392.594 461.944,-398.099 463.401,-391.252"/>
</g>
<!-- [root] root&#45;&gt;[root] provider.azurerm (close) -->
<g id="edge34" class="edge"><title>[root] root&#45;&gt;[root] provider.azurerm (close)</title>
<path fill="none" stroke="black" d="M761.559,-441.241C825.092,-429.925 944.446,-408.666 1025.81,-394.174"/>
<polygon fill="black" stroke="black" points="1026.8,-397.552 1036.03,-392.353 1025.57,-390.661 1026.8,-397.552"/>
</g>
</g>
</svg>
